<svg version="1.0" xmlns="http://www.w3.org/2000/svg"
 width="989.000000pt" height="252.000000pt" viewBox="0 0 989.000000 252.000000"
 preserveAspectRatio="xMidYMid meet">

<g transform="translate(0.000000,252.000000) scale(0.100000,-0.100000)"
fill="#FFFFFF" stroke="none">
<path d="M1299 2414 c-5 -7 -9 -52 -7 -101 l3 -88 98 -3 98 -3 -3 103 -3 103
-88 0 c-57 1 -92 -3 -98 -11z"/>
<path d="M1587 2403 c-4 -3 -7 -17 -7 -30 0 -18 5 -23 25 -23 21 0 25 5 25 30
0 22 -5 30 -18 30 -10 0 -22 -3 -25 -7z"/>
<path d="M1604 2267 c-3 -9 -4 -30 -2 -49 3 -31 5 -33 43 -33 l40 0 0 45 c0
45 0 45 -38 48 -26 2 -39 -1 -43 -11z"/>
<path d="M1417 2103 c-10 -9 -8 -105 2 -121 5 -9 26 -12 67 -10 l59 3 3 68 3
67 -64 0 c-35 0 -67 -3 -70 -7z"/>
<path d="M1254 2075 c-8 -21 4 -35 32 -35 19 0 24 5 24 25 0 20 -5 25 -25 25
-14 0 -28 -7 -31 -15z"/>
<path d="M1617 2083 c-4 -3 -7 -24 -7 -45 l0 -38 45 0 c32 0 45 4 45 14 0 7 3
28 6 45 l7 31 -45 0 c-25 0 -48 -3 -51 -7z"/>
<path d="M867 2019 c-287 -27 -564 -224 -692 -494 -62 -130 -79 -211 -79 -370
-1 -87 4 -161 13 -195 28 -113 109 -288 138 -297 21 -7 95 199 109 305 l7 52
-58 0 c-50 0 -56 2 -51 18 10 24 196 334 212 351 8 8 16 12 19 9 11 -11 175
-381 175 -395 0 -10 -13 -13 -52 -11 l-53 3 -21 -85 c-36 -147 -82 -252 -155
-352 l-29 -41 0 -209 c0 -146 3 -208 11 -208 6 0 89 45 184 99 189 108 214
130 307 269 68 100 119 204 160 322 31 93 68 245 68 285 0 24 -2 25 -76 25
-59 0 -75 3 -72 14 8 34 294 496 306 493 11 -2 239 -498 245 -532 1 -6 -26 -9
-70 -7 -82 4 -86 1 -97 -86 -10 -81 -71 -255 -121 -350 -56 -105 -114 -186
-195 -275 -34 -37 -60 -71 -57 -74 11 -10 150 -3 213 12 440 102 729 502 683
946 -29 285 -193 532 -449 677 -74 41 -222 90 -296 97 -118 11 -140 12 -227 4z
m101 -162 l3 -98 -98 3 -98 3 -3 84 c-2 46 0 90 2 98 4 11 27 13 98 11 l93 -3
3 -98z m140 61 c-2 -13 -10 -23 -18 -23 -8 0 -16 10 -18 23 -3 17 2 22 18 22
16 0 21 -5 18 -22z m230 -90 c-2 -13 -10 -23 -18 -23 -8 0 -16 10 -18 23 -3
17 2 22 18 22 16 0 21 -5 18 -22z m-170 -60 l3 -38 -40 0 -41 0 0 41 0 40 38
-3 c35 -3 37 -5 40 -40z m317 -133 l0 -60 -67 -3 -68 -3 0 66 0 66 68 -3 67
-3 0 -60z m-455 -60 l0 -65 -65 0 -65 0 0 65 0 65 65 0 65 0 0 -65z m-230 25
c0 -27 -3 -30 -30 -30 -18 0 -33 6 -36 15 -11 27 4 45 36 45 27 0 30 -3 30
-30z"/>
<path d="M3205 1799 c-27 -5 -60 -12 -72 -14 l-23 -5 0 -625 c0 -493 3 -625
13 -626 27 -2 94 -3 135 -1 l42 2 0 339 c0 303 2 340 17 352 11 10 46 14 119
14 l103 0 34 -33 c19 -18 39 -50 46 -71 7 -25 11 -138 11 -320 l0 -281 100 0
100 0 0 284 c0 156 -5 307 -10 337 -21 110 -76 184 -170 228 -48 23 -68 26
-160 26 -58 0 -124 -4 -147 -8 l-43 -9 -2 209 c-3 236 4 220 -93 202z"/>
<path d="M8947 1680 c-143 -15 -127 56 -127 -581 l0 -549 28 -11 c15 -6 88
-15 162 -21 424 -31 678 100 766 397 21 72 24 282 5 360 -20 81 -79 190 -133
244 -62 62 -179 123 -278 146 -90 20 -300 27 -423 15z m418 -200 c79 -31 154
-105 186 -185 21 -53 24 -76 24 -190 0 -154 -18 -213 -90 -292 -77 -87 -185
-123 -362 -123 l-93 0 0 411 0 412 138 -5 c111 -4 148 -10 197 -28z"/>
<path d="M2032 1593 l3 -88 175 -5 175 -5 3 -482 2 -483 105 0 105 0 0 485 0
485 175 0 176 0 -3 88 -3 87 -458 3 -458 2 3 -87z"/>
<path d="M5048 1618 c-3 -35 -4 -108 -4 -163 1 -55 2 -285 4 -511 l2 -412 69
-7 c38 -4 83 -4 100 0 l31 7 0 399 c0 237 4 399 9 399 30 0 308 -387 501 -697
l63 -103 89 0 88 0 -2 573 -3 572 -97 3 -98 3 -1 -338 c0 -186 -3 -356 -7
-378 l-7 -40 -50 73 c-151 221 -354 489 -462 610 l-64 72 -78 0 -78 0 -5 -62z"/>
<path d="M8190 1639 c-25 -5 -55 -11 -67 -14 l-23 -5 0 -408 c0 -447 6 -509
57 -591 19 -29 46 -54 83 -75 53 -30 59 -31 180 -31 97 0 136 4 173 18 52 21
51 18 33 102 -11 55 -14 60 -37 57 -13 -1 -65 -5 -114 -8 -88 -6 -92 -5 -123
21 -17 14 -36 43 -42 63 -5 20 -10 133 -10 250 l0 212 155 0 156 0 -3 78 -3
77 -130 2 c-192 4 -175 -9 -175 138 l0 125 -32 -1 c-18 -1 -53 -5 -78 -10z"/>
<path d="M4379 1409 c-226 -24 -378 -259 -342 -526 26 -193 120 -309 288 -358
104 -31 404 -7 429 34 5 7 -18 138 -25 145 -2 3 -31 -2 -64 -10 -81 -19 -231
-18 -286 1 -75 27 -138 107 -139 178 l0 27 280 0 c274 0 280 0 291 21 13 25 5
135 -18 224 -46 188 -201 287 -414 264z m134 -173 c47 -19 83 -66 97 -127 10
-43 10 -53 -1 -60 -19 -12 -340 -11 -358 0 -18 12 -3 70 32 122 44 67 153 98
230 65z"/>
<path d="M6573 1408 c-150 -17 -268 -118 -324 -279 -32 -90 -32 -256 0 -348
41 -117 98 -181 211 -235 64 -31 67 -31 220 -31 124 0 165 4 207 18 29 10 55
22 58 26 5 10 -15 133 -24 143 -3 4 -33 0 -66 -8 -77 -18 -219 -20 -276 -3
-60 18 -121 81 -138 141 -7 26 -10 51 -6 57 4 8 98 11 291 11 l284 0 0 58 c0
78 -16 172 -41 238 -59 157 -203 234 -396 212z m154 -184 c39 -30 61 -63 75
-117 11 -41 10 -49 -2 -57 -19 -12 -340 -13 -359 -1 -11 7 -11 16 -1 47 34
107 101 157 203 151 37 -2 67 -10 84 -23z"/>
<path d="M7150 1381 c0 -4 59 -93 131 -197 73 -104 134 -197 136 -206 3 -10
-30 -63 -86 -137 -89 -117 -201 -285 -201 -303 0 -4 43 -8 95 -8 l94 0 59 88
c79 117 140 192 155 192 13 0 112 -129 171 -222 l37 -58 99 0 c75 0 100 3 100
13 0 18 -106 179 -205 311 -47 62 -85 120 -85 127 0 8 61 101 135 207 74 105
135 194 135 197 0 3 -44 5 -99 5 l-98 0 -87 -125 c-48 -69 -90 -125 -95 -125
-12 0 -42 38 -101 125 -87 131 -78 125 -192 125 -54 0 -98 -4 -98 -9z"/>
</g>
</svg>
